<?xml version="1.0" encoding="iso-8859-1"?>
<!-- Generator: Adobe Illustrator 19.0.0, SVG Export Plug-In . SVG Version: 6.00 Build 0)  -->
<svg version="1.1" id="Capa_1" xmlns="http://www.w3.org/2000/svg" xmlns:xlink="http://www.w3.org/1999/xlink" x="0px" y="0px"
	 viewBox="0 0 512 512" style="enable-background:new 0 0 512 512;" xml:space="preserve">
<g>
	<g>
		<path d="M448,245.333v-128c0-2.833-1.125-5.542-3.125-7.542L338.208,3.125c-2-2-4.708-3.125-7.542-3.125h-224
			C83.146,0,64,19.135,64,42.667V160c0,2.833,1.125,5.542,3.125,7.542l38,38.01l-17.854,53.552l-17.375,8.688
			c-3.604,1.813-5.896,5.5-5.896,9.542v110.219c0,2.313,0.75,4.552,2.125,6.396l19.896,26.521l16.583,82.958
			c1,4.979,5.375,8.573,10.458,8.573h292.271C428.854,512,448,492.865,448,469.333v-74.667c0-1.354-0.25-2.698-0.771-3.958
			l-40.042-100.135l37.688-37.698C446.875,250.875,448,248.167,448,245.333z M341.333,36.417l70.25,70.25h-48.917
			c-11.771,0-21.333-9.573-21.333-21.333V36.417z M426.667,240.917l-29.077,29.077l-14.715-29.431
			c-2.646-5.271-9.042-7.375-14.313-4.771c-5.271,2.635-7.396,9.042-4.771,14.313l62.875,146.615v72.615
			c0,11.76-9.563,21.333-21.333,21.333H121.813l-14.234-71.161l38.63-38.63c4.167-4.167,4.167-10.917,0-15.083
			c-4.167-4.167-10.917-4.167-15.083,0L97.156,399.76L85.333,384V283.927l15.438-7.719c2.521-1.271,4.458-3.49,5.354-6.167
			L122,222.417l30.458,30.458c2.083,2.083,4.813,3.125,7.542,3.125s5.458-1.042,7.542-3.125c4.167-4.167,4.167-10.917,0-15.083
			l-82.208-82.208V42.667c0-11.76,9.563-21.333,21.333-21.333H320v64C320,108.865,339.146,128,362.667,128h64V240.917z"/>
	</g>
</g>
<g>
</g>
<g>
</g>
<g>
</g>
<g>
</g>
<g>
</g>
<g>
</g>
<g>
</g>
<g>
</g>
<g>
</g>
<g>
</g>
<g>
</g>
<g>
</g>
<g>
</g>
<g>
</g>
<g>
</g>
</svg>
